<svg width="678" height="193" viewBox="0 0 678 193" fill="none" xmlns="http://www.w3.org/2000/svg">
<mask id="path-1-outside-1_30_29" maskUnits="userSpaceOnUse" x="0" y="0" width="678" height="193" fill="black">
<rect fill="white" width="678" height="193"/>
<path d="M190 8.5C190 12.0899 187.09 15 183.5 15C179.91 15 177 12.0899 177 8.5C177 4.91015 179.91 2 183.5 2C187.09 2 190 4.91015 190 8.5Z"/>
<path d="M15 184.5C15 188.09 12.0899 191 8.5 191C4.91015 191 2 188.09 2 184.5C2 180.91 4.91015 178 8.5 178C12.0899 178 15 180.91 15 184.5Z"/>
<path d="M86 88H102V104H86V88Z"/>
<path d="M660 88H676V104H660V88Z"/>
<path d="M209.871 112H196.161V74.9091H209.853C213.632 74.9091 216.886 75.6516 219.615 77.1367C222.355 78.6097 224.468 80.7347 225.953 83.5117C227.439 86.2766 228.181 89.5849 228.181 93.4364C228.181 97.3001 227.439 100.62 225.953 103.397C224.48 106.174 222.374 108.305 219.633 109.79C216.892 111.263 213.638 112 209.871 112ZM205.126 104.357H209.527C211.604 104.357 213.36 104.007 214.797 103.307C216.246 102.594 217.339 101.441 218.075 99.8477C218.824 98.2418 219.198 96.1048 219.198 93.4364C219.198 90.7681 218.824 88.6431 218.075 87.0614C217.327 85.4677 216.222 84.3207 214.761 83.6204C213.312 82.908 211.525 82.5518 209.4 82.5518H205.126V104.357Z"/>
<path d="M233.415 112V74.9091H259.277V82.1896H242.38V89.7962H257.955V97.0948H242.38V104.719H259.277V112H233.415Z"/>
<path d="M284.94 86.0291C284.82 84.701 284.282 83.6687 283.328 82.9322C282.387 82.1836 281.04 81.8093 279.29 81.8093C278.131 81.8093 277.165 81.9602 276.392 82.2621C275.619 82.5639 275.04 82.9805 274.653 83.5117C274.267 84.0309 274.068 84.6286 274.056 85.3047C274.032 85.8601 274.14 86.3491 274.382 86.7717C274.635 87.1942 274.997 87.5685 275.468 87.8945C275.951 88.2085 276.531 88.4861 277.207 88.7276C277.883 88.9691 278.644 89.1804 279.489 89.3615L282.676 90.0859C284.512 90.4844 286.13 91.0156 287.53 91.6797C288.943 92.3438 290.126 93.1346 291.08 94.0522C292.046 94.9698 292.776 96.0263 293.271 97.2216C293.766 98.4169 294.02 99.7571 294.032 101.242C294.02 103.585 293.428 105.595 292.257 107.273C291.086 108.951 289.402 110.237 287.204 111.131C285.019 112.024 282.381 112.471 279.29 112.471C276.187 112.471 273.482 112.006 271.176 111.076C268.87 110.147 267.077 108.734 265.797 106.838C264.517 104.943 263.859 102.546 263.823 99.6484H272.408C272.48 100.844 272.8 101.84 273.367 102.637C273.935 103.434 274.714 104.037 275.704 104.448C276.706 104.858 277.865 105.064 279.181 105.064C280.388 105.064 281.415 104.901 282.26 104.575C283.117 104.249 283.775 103.796 284.234 103.216C284.693 102.637 284.928 101.973 284.94 101.224C284.928 100.524 284.711 99.9261 284.288 99.4311C283.866 98.924 283.214 98.4893 282.332 98.1271C281.463 97.7528 280.352 97.4087 279 97.0948L275.124 96.1893C271.913 95.4528 269.383 94.2635 267.536 92.6214C265.689 90.9673 264.771 88.7337 264.783 85.9205C264.771 83.6264 265.387 81.6161 266.63 79.8896C267.874 78.163 269.803 77.4659 272 76.5C274.198 75.5341 276.187 77 279 77C282.5 78 285.5 78 288 78.5C290.125 79.4659 289.5 78.5 291.732 79.9439C292.903 81.6946 293.501 83.723 293.525 86.0291H284.94Z"/>
<path d="M307.524 82.9322V112H298.56V81L307.524 82.9322Z"/>
<path d="M383.816 101.242V112H376.21L361.214 96.1893V112H352.249V94.0522L361.214 96.1893L375 99.4311L383.816 101.242Z"/>
<path d="M488.492 97.3303L462.268 108.342V100.119L479.582 93.6357L479.328 94.0522V93.0923L479.582 93.4908L462.268 87.0252V78.7848L488.492 89.7962V97.3303Z"/>
</mask>
<path d="M319.5 85L319.268 85.9726L319.27 85.9733L319.5 85ZM322.932 99.4854L323.857 99.106L323.857 99.106L322.932 99.4854ZM325.921 103.325L326.481 102.496L326.481 102.496L325.921 103.325ZM334.831 103.85L335.255 104.756L335.259 104.754L334.831 103.85ZM337.439 101.55L336.581 101.037L336.581 101.037L337.439 101.55ZM338.326 98.0547L338.445 97.0618L337.326 96.928V98.0547H338.326ZM339.993 98.2539V99.2539L340.111 97.261L339.993 98.2539ZM330.973 98.2539H329.973V99.2539H330.973V98.2539ZM330.973 91.7159V90.7159H329.973V91.7159H330.973ZM346.965 91.7159H347.965V90.7159H346.965V91.7159ZM344.846 105.154L343.988 104.642L343.986 104.645L344.846 105.154ZM339.051 110.605L338.593 109.716L338.591 109.717L339.051 110.605ZM321.266 110.207L321.763 109.339L321.266 110.207ZM315 103.651L314.114 104.116L314.115 104.118L315 103.651ZM346.59 88.3473V89.3473H347.692L347.585 88.2499L346.59 88.3473ZM337.534 88.3473L336.543 88.4761L336.656 89.3473H337.534V88.3473ZM336.792 85.8299L335.898 86.2771L335.898 86.2771L336.792 85.8299ZM335.307 83.9102L335.96 83.153L335.96 83.153L335.307 83.9102ZM333.115 82.6967L332.787 83.6412L332.795 83.6441L332.803 83.6468L333.115 82.6967ZM325.69 83.5842L325.13 82.7557L325.126 82.7581L325.69 83.5842ZM336.339 75.3438L336.027 76.2936L336.032 76.2954L336.339 75.3438ZM341.374 78.0604L340.738 78.8317L340.741 78.8349L341.374 78.0604ZM384.374 101.832L384.128 102.801L384.875 102.991L385.249 102.316L384.374 101.832ZM351.321 93.4545H350.321V94.2327L351.076 94.4239L351.321 93.4545ZM353.658 83.0771L352.783 82.593L352.781 82.5959L353.658 83.0771ZM360.015 76.6115L360.498 77.487L360.498 77.487L360.015 76.6115ZM377.999 76.6115L377.515 77.487L377.517 77.4879L377.999 76.6115ZM384.374 83.0771L383.499 83.5611L383.499 83.5611L384.374 83.0771ZM376.532 87.3331L375.605 87.7091L375.607 87.7149L376.532 87.3331ZM373.598 83.5479L373.037 84.3763L373.041 84.3788L373.598 83.5479ZM364.434 83.5479L364.99 84.3788L364.99 84.3788L364.434 83.5479ZM361.481 87.3331L360.557 86.9513L360.555 86.9571L361.481 87.3331ZM377 98L376.77 98.9732L377.599 99.1692L377.924 98.3818L377 98ZM391.962 74.9091V73.9091H390.962V74.9091H391.962ZM415.415 77.1367L414.937 78.0151L414.942 78.0176L415.415 77.1367ZM421.754 83.5117L420.872 83.9833L420.873 83.9849L421.754 83.5117ZM421.754 103.397L420.872 102.926L420.871 102.929L421.754 103.397ZM400.927 104.357H399.927V105.357H400.927V104.357ZM410.598 103.307L411.036 104.206L411.039 104.204L410.598 103.307ZM413.876 99.8477L412.97 99.4251L412.968 99.4282L413.876 99.8477ZM413.876 87.0614L412.971 87.4866L412.972 87.4892L413.876 87.0614ZM410.562 83.6204L410.121 84.5178L410.13 84.5221L410.562 83.6204ZM400.927 82.5518V81.5518H399.927V82.5518H400.927ZM429.216 112H428.216V113H429.216V112ZM429.216 74.9091V73.9091H428.216V74.9091H429.216ZM455.078 74.9091H456.078V73.9091H455.078V74.9091ZM455.078 82.1896V83.1896H456.078V82.1896H455.078ZM438.181 82.1896V81.1896H437.181V82.1896H438.181ZM438.181 89.7962H437.181V90.7962H438.181V89.7962ZM453.756 89.7962H454.756V88.7962H453.756V89.7962ZM453.756 97.0948V98.0948H454.756V97.0948H453.756ZM438.181 97.0948V96.0948H437.181V97.0948H438.181ZM438.181 104.719H437.181V105.719H438.181V104.719ZM455.078 104.719H456.078V103.719H455.078V104.719ZM455.078 112V113H456.078V112H455.078ZM360.47 94.0923L359.47 94.078L359.458 94.8808L360.24 95.0655L360.47 94.0923ZM9.64645 183.646L185.646 7.64645L184.232 6.23224L8.23223 182.232L9.64645 183.646ZM97.8084 93.5886C100.784 89.5025 106.968 84.7727 116.955 80.5346C126.92 76.3058 140.596 72.5992 158.454 70.5057C194.17 66.3187 246.548 68.5918 319.268 85.9726L319.732 84.0274C246.852 66.6082 194.23 64.2979 158.221 68.5193C140.217 70.63 126.349 74.3755 116.173 78.6935C106.02 83.0023 99.4663 87.9141 96.1916 92.4113L97.8084 93.5886ZM319.27 85.9733C367.964 97.4599 436.679 116.608 501.872 124.992C534.477 129.185 566.257 130.694 594.265 127.195C622.266 123.697 646.587 115.181 664.172 99.2409L662.828 97.7591C645.663 113.319 621.796 121.74 594.017 125.211C566.243 128.681 534.648 127.19 502.128 123.008C437.071 114.642 368.536 95.5401 319.73 84.0267L319.27 85.9733ZM322.05 86.9738C321.27 88.7854 320.9 90.9384 320.9 93.4002H322.9C322.9 91.1291 323.242 89.2615 323.887 87.7649L322.05 86.9738ZM320.9 93.4002C320.9 95.8704 321.257 98.0351 322.007 99.8648L323.857 99.106C323.231 97.5793 322.9 95.6871 322.9 93.4002H320.9ZM322.007 99.8648C322.758 101.697 323.869 103.146 325.361 104.153L326.481 102.496C325.364 101.742 324.483 100.63 323.857 99.106L322.007 99.8648ZM325.361 104.153C326.858 105.166 328.644 105.647 330.666 105.647V103.647C328.969 103.647 327.591 103.247 326.481 102.496L325.361 104.153ZM330.666 105.647C332.411 105.647 333.953 105.365 335.255 104.756L334.407 102.944C333.439 103.397 332.205 103.647 330.666 103.647V105.647ZM335.259 104.754C336.566 104.135 337.594 103.24 338.297 102.063L336.581 101.037C336.101 101.84 335.39 102.479 334.403 102.946L335.259 104.754ZM338.297 102.063C338.996 100.894 339.326 99.5459 339.326 98.0547H337.326C337.326 99.2439 337.065 100.226 336.581 101.037L338.297 102.063ZM338.208 99.0476L339.874 99.2468L340.111 97.261L338.445 97.0618L338.208 99.0476ZM339.993 97.2539H330.973V99.2539H339.993V97.2539ZM331.973 98.2539V91.7159H329.973V98.2539H331.973ZM330.973 92.7159H346.965V90.7159H330.973V92.7159ZM345.965 91.7159V96.6239H347.965V91.7159H345.965ZM345.965 96.6239C345.965 99.8008 345.29 102.459 343.988 104.642L345.705 105.667C347.227 103.116 347.965 100.088 347.965 96.6239H345.965ZM343.986 104.645C342.682 106.848 340.89 108.534 338.593 109.716L339.508 111.495C342.138 110.141 344.21 108.193 345.707 105.663L343.986 104.645ZM338.591 109.717C336.303 110.901 333.646 111.507 330.593 111.507V113.507C333.916 113.507 336.897 112.846 339.51 111.494L338.591 109.717ZM330.593 111.507C327.204 111.507 324.271 110.774 321.763 109.339L320.769 111.075C323.622 112.707 326.907 113.507 330.593 113.507V111.507ZM321.763 109.339C319.254 107.904 317.296 105.861 315.884 103.184L314.115 104.118C315.697 107.116 317.918 109.444 320.769 111.075L321.763 109.339ZM315.885 103.186C314.478 100.508 313.754 97.2933 313.754 93.5089H311.754C311.754 97.5483 312.527 101.095 314.114 104.116L315.885 103.186ZM313.754 93.5089C313.754 90.5644 314.192 87.9912 315.046 85.7723L313.179 85.0544C312.221 87.5443 311.754 90.3682 311.754 93.5089H313.754ZM346.59 87.3473H337.534V89.3473H346.59V87.3473ZM338.526 88.2185C338.393 87.1912 338.116 86.2425 337.686 85.3827L335.898 86.2771C336.216 86.9145 336.435 87.644 336.543 88.4761L338.526 88.2185ZM337.686 85.3827C337.255 84.5194 336.679 83.7731 335.96 83.153L334.654 84.6673C335.166 85.1097 335.581 85.6433 335.898 86.2771L337.686 85.3827ZM335.96 83.153C335.235 82.5278 334.386 82.0617 333.428 81.7467L332.803 83.6468C333.535 83.8872 334.147 84.23 334.654 84.6673L335.96 83.153ZM333.444 81.7522C332.491 81.4207 331.454 81.2621 330.345 81.2621V83.2621C331.263 83.2621 332.074 83.3932 332.787 83.6412L333.444 81.7522ZM330.345 81.2621C328.375 81.2621 326.622 81.7471 325.13 82.7557L326.25 84.4127C327.366 83.6585 328.716 83.2621 330.345 83.2621V81.2621ZM325.126 82.7581C324.453 83.2176 323.966 83.6078 323.564 84.1597C323.185 84.6814 322.918 85.3043 322.578 86.1125L324.422 86.8875C324.782 86.0296 324.964 85.6352 325.182 85.3359C325.378 85.0667 325.635 84.8321 326.254 84.4102L325.126 82.7581ZM315.736 83.5583C317.209 80.875 319.185 78.8614 321.665 77.486L320.695 75.737C317.863 77.3076 315.625 79.6044 313.983 82.5959L315.736 83.5583ZM321.665 77.486C324.161 76.1022 326.968 75.402 330.109 75.402V73.402C326.658 73.402 323.513 74.1748 320.695 75.737L321.665 77.486ZM330.109 75.402C332.261 75.402 334.231 75.7027 336.027 76.2936L336.652 74.3939C334.632 73.7292 332.449 73.402 330.109 73.402V75.402ZM336.032 76.2954C337.828 76.875 339.392 77.722 340.738 78.8317L342.01 77.289C340.458 76.0081 338.666 75.044 336.646 74.3921L336.032 76.2954ZM340.741 78.8349C342.082 79.9293 343.174 81.2772 344.02 82.8895L345.791 81.9606C344.826 80.1198 343.564 78.5579 342.006 77.2858L340.741 78.8349ZM344.02 82.8895C344.858 84.4866 345.388 86.3329 345.595 88.4447L347.585 88.2499C347.357 85.9185 346.765 83.8167 345.791 81.9606L344.02 82.8895ZM385.728 93.4545C385.728 95.4287 385.538 96.7042 385.187 97.8056C384.829 98.9257 384.291 99.9146 383.499 101.348L385.249 102.316C386.025 100.912 386.665 99.7528 387.092 98.4137C387.525 97.056 387.728 95.5614 387.728 93.4545H385.728ZM352.321 93.4545C352.321 89.4988 353.076 86.2145 354.534 83.5583L352.781 82.5959C351.124 85.6143 350.321 89.2484 350.321 93.4545H352.321ZM354.533 83.5611C356.017 80.8775 358.005 78.8631 360.498 77.487L359.531 75.736C356.687 77.3059 354.437 79.6019 352.783 82.593L354.533 83.5611ZM360.498 77.487C363.005 76.1031 365.836 75.402 369.016 75.402V73.402C365.53 73.402 362.361 74.1739 359.531 75.736L360.498 77.487ZM369.016 75.402C372.182 75.402 375.008 76.1028 377.515 77.487L378.482 75.736C375.653 74.1742 372.489 73.402 369.016 73.402V75.402ZM377.517 77.4879C380.022 78.8643 382.015 80.8787 383.499 83.5611L385.249 82.593C383.593 79.6007 381.336 77.3047 378.48 75.7351L377.517 77.4879ZM383.499 83.5611C384.968 86.2167 385.728 89.4999 385.728 93.4545H387.728C387.728 89.2473 386.919 85.6121 385.249 82.593L383.499 83.5611ZM378.564 93.4545C378.564 90.9507 378.208 88.7721 377.456 86.9513L375.607 87.7149C376.232 89.2264 376.564 91.1288 376.564 93.4545H378.564ZM377.458 86.9571C376.72 85.1375 375.626 83.7032 374.154 82.7171L373.041 84.3788C374.129 85.1071 374.991 86.1963 375.605 87.7091L377.458 86.9571ZM374.158 82.7195C372.698 81.7327 370.968 81.2621 369.016 81.2621V83.2621C370.637 83.2621 371.961 83.6487 373.037 84.3763L374.158 82.7195ZM369.016 81.2621C367.074 81.2621 365.346 81.7335 363.877 82.7171L364.99 84.3788C366.081 83.6479 367.408 83.2621 369.016 83.2621V81.2621ZM363.877 82.7171C362.406 83.7021 361.308 85.1342 360.557 86.9513L362.406 87.7149C363.032 86.1996 363.901 85.1083 364.99 84.3788L363.877 82.7171ZM377.924 98.3818C378.294 97.4868 378.47 96.8524 378.536 96.0954C378.596 95.4111 378.564 94.5976 378.564 93.4545H376.564C376.564 94.7263 376.594 95.3524 376.544 95.9206C376.5 96.4161 376.394 96.847 376.076 97.6182L377.924 98.3818ZM392.962 103V74.9091H390.962V103H392.962ZM391.962 75.9091H405.654V73.9091H391.962V75.9091ZM405.654 75.9091C409.302 75.9091 412.384 76.6254 414.937 78.0151L415.893 76.2584C412.99 74.6779 409.564 73.9091 405.654 73.9091V75.9091ZM414.942 78.0176C417.507 79.3962 419.479 81.3777 420.872 83.9833L422.636 83.0401C421.059 80.0917 418.805 77.8233 415.889 76.2559L414.942 78.0176ZM420.873 83.9849C422.264 86.5748 422.982 89.7129 422.982 93.4364H424.982C424.982 89.4568 424.214 85.9784 422.635 83.0385L420.873 83.9849ZM422.982 93.4364C422.982 97.1724 422.264 100.323 420.872 102.926L422.636 103.869C424.214 100.918 424.982 97.4277 424.982 93.4364H422.982ZM420.871 102.929C420.155 104.279 419.563 105.16 418.857 105.877C418.152 106.592 417.286 107.191 415.957 107.911L416.91 109.67C418.322 108.905 419.38 108.195 420.282 107.28C421.182 106.366 421.881 105.293 422.638 103.866L420.871 102.929ZM400.927 105.357H405.328V103.357H400.927V105.357ZM405.328 105.357C407.513 105.357 409.428 104.989 411.036 104.206L410.16 102.408C408.894 103.025 407.296 103.357 405.328 103.357V105.357ZM411.039 104.204C412.712 103.382 413.96 102.05 414.784 100.267L412.968 99.4282C412.319 100.833 411.381 101.807 410.157 102.409L411.039 104.204ZM414.782 100.27C415.616 98.4823 415.999 96.1835 415.999 93.4364H413.999C413.999 96.026 413.633 98.0014 412.97 99.4251L414.782 100.27ZM415.999 93.4364C415.999 90.6905 415.616 88.4007 414.78 86.6336L412.972 87.4892C413.633 88.8855 413.999 90.8457 413.999 93.4364H415.999ZM414.781 86.6363C413.944 84.8533 412.681 83.5274 410.994 82.7186L410.13 84.5221C411.364 85.1139 412.311 86.082 412.971 87.4866L414.781 86.6363ZM411.003 82.723C409.381 81.9253 407.433 81.5518 405.201 81.5518V83.5518C407.219 83.5518 408.845 83.8908 410.121 84.5178L411.003 82.723ZM405.201 81.5518H400.927V83.5518H405.201V81.5518ZM399.927 82.5518V104.357H401.927V82.5518H399.927ZM430.216 112V74.9091H428.216V112H430.216ZM429.216 75.9091H455.078V73.9091H429.216V75.9091ZM454.078 74.9091V82.1896H456.078V74.9091H454.078ZM455.078 81.1896H438.181V83.1896H455.078V81.1896ZM437.181 82.1896V89.7962H439.181V82.1896H437.181ZM438.181 90.7962H453.756V88.7962H438.181V90.7962ZM452.756 89.7962V97.0948H454.756V89.7962H452.756ZM453.756 96.0948H438.181V98.0948H453.756V96.0948ZM437.181 97.0948V104.719H439.181V97.0948H437.181ZM438.181 105.719H455.078V103.719H438.181V105.719ZM454.078 104.719V112H456.078V104.719H454.078ZM455.078 111H429.216V113H455.078V111ZM351.076 94.4239L384.128 102.801L384.619 100.863L351.567 92.4852L351.076 94.4239ZM360.555 86.9571C359.84 88.7188 359.503 91.7936 359.47 94.078L361.47 94.1067C361.502 91.8765 361.839 89.1118 362.408 87.7091L360.555 86.9571ZM360.24 95.0655L376.77 98.9732L377.23 97.0268L360.7 93.1192L360.24 95.0655ZM86 88V86H84V88H86ZM102 88H104V86H102V88ZM102 104V106H104V104H102ZM86 104H84V106H86V104ZM660 88V86H658V88H660ZM676 88H678V86H676V88ZM676 104V106H678V104H676ZM660 104H658V106H660V104ZM196.161 112H194.161V114H196.161V112ZM196.161 74.9091V72.9091H194.161V74.9091H196.161ZM219.615 77.1367L218.659 78.8934L218.668 78.8984L219.615 77.1367ZM225.953 83.5117L224.19 84.4549L224.192 84.4581L225.953 83.5117ZM225.953 103.397L224.19 102.454L224.187 102.46L225.953 103.397ZM219.633 109.79L220.58 111.552L220.586 111.549L219.633 109.79ZM205.126 104.357H203.126V106.357H205.126V104.357ZM214.797 103.307L215.673 105.105L215.68 105.102L214.797 103.307ZM218.075 99.8477L216.263 99.0026L216.26 99.0087L218.075 99.8477ZM218.075 87.0614L216.265 87.9117L216.267 87.917L218.075 87.0614ZM214.761 83.6204L213.879 85.4152L213.887 85.4196L213.896 85.4239L214.761 83.6204ZM205.126 82.5518V80.5518H203.126V82.5518H205.126ZM233.415 112H231.415V114H233.415V112ZM233.415 74.9091V72.9091H231.415V74.9091H233.415ZM259.277 74.9091H261.277V72.9091H259.277V74.9091ZM259.277 82.1896V84.1896H261.277V82.1896H259.277ZM242.38 82.1896V80.1896H240.38V82.1896H242.38ZM242.38 89.7962H240.38V91.7962H242.38V89.7962ZM257.955 89.7962H259.955V87.7962H257.955V89.7962ZM257.955 97.0948V99.0948H259.955V97.0948H257.955ZM242.38 97.0948V95.0948H240.38V97.0948H242.38ZM242.38 104.719H240.38V106.719H242.38V104.719ZM259.277 104.719H261.277V102.719H259.277V104.719ZM259.277 112V114H261.277V112H259.277ZM284.94 86.0291L282.949 86.2102L283.114 88.0291H284.94V86.0291ZM283.328 82.9322L282.084 84.4978L282.095 84.5066L282.106 84.5152L283.328 82.9322ZM276.392 82.2621L275.664 80.3992L275.664 80.3992L276.392 82.2621ZM274.653 83.5117L276.258 84.7057L276.264 84.6969L276.271 84.6881L274.653 83.5117ZM274.056 85.3047L276.054 85.3916L276.055 85.366L276.055 85.3404L274.056 85.3047ZM274.382 86.7717L272.645 87.7639L272.656 87.7824L272.667 87.8007L274.382 86.7717ZM275.468 87.8945L274.33 89.5389L274.354 89.5555L274.378 89.5714L275.468 87.8945ZM277.207 88.7276L277.88 86.8441L277.88 86.8441L277.207 88.7276ZM279.489 89.3615L279.932 87.4112L279.92 87.4085L279.908 87.4059L279.489 89.3615ZM282.676 90.0859L282.233 92.0362L282.243 92.0384L282.252 92.0404L282.676 90.0859ZM287.53 91.6797L286.673 93.4869L286.679 93.4897L287.53 91.6797ZM291.08 94.0522L289.693 95.4935L289.702 95.5022L291.08 94.0522ZM293.271 97.2216L291.423 97.9868L291.423 97.9868L293.271 97.2216ZM294.032 101.242L296.032 101.252L296.032 101.239L296.032 101.226L294.032 101.242ZM292.257 107.273L290.617 106.129L290.617 106.129L292.257 107.273ZM287.204 111.131L286.451 109.278L286.447 109.279L287.204 111.131ZM271.176 111.076L271.924 109.221L271.924 109.221L271.176 111.076ZM263.823 99.6484V97.6484H261.798L261.823 99.6734L263.823 99.6484ZM272.408 99.6484L274.404 99.5274L274.29 97.6484H272.408V99.6484ZM273.367 102.637L271.738 103.797L271.738 103.797L273.367 102.637ZM275.704 104.448L274.938 106.295L274.946 106.299L275.704 104.448ZM282.26 104.575L281.549 102.705L281.54 102.709L282.26 104.575ZM284.234 103.216L282.666 101.975L282.666 101.975L284.234 103.216ZM284.94 101.224L286.94 101.256L286.941 101.223L286.94 101.19L284.94 101.224ZM284.288 99.4311L282.752 100.711L282.759 100.721L282.767 100.73L284.288 99.4311ZM282.332 98.1271L281.541 99.9641L281.557 99.9707L281.572 99.977L282.332 98.1271ZM279 97.0948L278.545 99.0424L278.548 99.043L279 97.0948ZM275.124 96.1893L275.579 94.2417L275.571 94.2399L275.124 96.1893ZM267.536 92.6214L266.202 94.1114L266.207 94.1163L267.536 92.6214ZM264.783 85.9205L266.783 85.929L266.783 85.9195L266.783 85.9099L264.783 85.9205ZM266.63 79.8896L265.007 78.7206L265.007 78.7206L266.63 79.8896ZM272 76.5L272.805 78.331L272.805 78.331L272 76.5ZM279 77L279.549 75.077L279.28 75H279V77ZM288 78.5L288.828 76.6793L288.618 76.584L288.392 76.5389L288 78.5ZM291.732 79.9439L293.394 78.8318L293.165 78.4888L292.818 78.2647L291.732 79.9439ZM293.525 86.0291V88.0291H295.546L295.525 86.0082L293.525 86.0291ZM307.524 82.9322H309.524V81.3173L307.946 80.9771L307.524 82.9322ZM307.524 112V114H309.524V112H307.524ZM298.56 112H296.56V114H298.56V112ZM298.56 81L298.981 79.0449L296.56 78.5231V81H298.56ZM383.816 101.242H385.816V99.6113L384.219 99.2831L383.816 101.242ZM383.816 112V114H385.816V112H383.816ZM376.21 112L374.759 113.376L375.35 114H376.21V112ZM361.214 112V114H363.214V112H361.214ZM352.249 112H350.249V114H352.249V112ZM352.249 94.0522L352.713 92.1067L350.249 91.5194V94.0522H352.249ZM375 99.4311L374.542 101.378L374.57 101.384L374.598 101.39L375 99.4311ZM488.492 97.3303L489.267 99.1743L490.492 98.6596V97.3303H488.492ZM462.268 108.342H460.268V111.351L463.042 110.186L462.268 108.342ZM462.268 100.119L461.567 98.2463L460.268 98.7326V100.119H462.268ZM479.582 93.6357L481.29 94.6755L484.298 89.7339L478.881 91.7627L479.582 93.6357ZM479.328 94.0522H477.328V101.185L481.037 95.0921L479.328 94.0522ZM479.328 93.0923L481.016 92.0186L477.328 86.224V93.0923H479.328ZM479.582 93.4908L478.882 95.3644L484.473 97.4523L481.269 92.4171L479.582 93.4908ZM462.268 87.0252H460.268V88.4132L461.568 88.8988L462.268 87.0252ZM462.268 78.7848L463.042 76.9408L460.268 75.7759V78.7848H462.268ZM488.492 89.7962H490.492V88.4668L489.267 87.9521L488.492 89.7962ZM188 8.5C188 10.9853 185.985 13 183.5 13V17C188.194 17 192 13.1944 192 8.5H188ZM183.5 13C181.015 13 179 10.9853 179 8.5H175C175 13.1944 178.806 17 183.5 17V13ZM179 8.5C179 6.01472 181.015 4 183.5 4V0C178.806 0 175 3.80558 175 8.5H179ZM183.5 4C185.985 4 188 6.01472 188 8.5H192C192 3.80558 188.194 0 183.5 0V4ZM13 184.5C13 186.985 10.9853 189 8.5 189V193C13.1944 193 17 189.194 17 184.5H13ZM8.5 189C6.01472 189 4 186.985 4 184.5H0C0 189.194 3.80558 193 8.5 193V189ZM4 184.5C4 182.015 6.01472 180 8.5 180V176C3.80558 176 0 179.806 0 184.5H4ZM8.5 180C10.9853 180 13 182.015 13 184.5H17C17 179.806 13.1944 176 8.5 176V180ZM86 90H102V86H86V90ZM100 88V104H104V88H100ZM102 102H86V106H102V102ZM88 104V88H84V104H88ZM660 90H676V86H660V90ZM674 88V104H678V88H674ZM676 102H660V106H676V102ZM662 104V88H658V104H662ZM209.871 110H196.161V114H209.871V110ZM198.161 112V74.9091H194.161V112H198.161ZM196.161 76.9091H209.853V72.9091H196.161V76.9091ZM209.853 76.9091C213.37 76.9091 216.28 77.5991 218.659 78.8934L220.571 75.38C217.492 73.7042 213.894 72.9091 209.853 72.9091V76.9091ZM218.668 78.8984C221.057 80.1826 222.888 82.0207 224.19 84.4549L227.717 82.5686C226.049 79.4487 223.654 77.0369 220.561 75.375L218.668 78.8984ZM224.192 84.4581C225.489 86.8731 226.181 89.841 226.181 93.4364H230.181C230.181 89.3287 229.388 85.6802 227.715 82.5654L224.192 84.4581ZM226.181 93.4364C226.181 97.0448 225.488 100.026 224.19 102.454L227.717 104.341C229.389 101.215 230.181 97.5554 230.181 93.4364H226.181ZM224.187 102.46C222.897 104.892 221.071 106.736 218.68 108.032L220.586 111.549C223.676 109.875 226.064 107.456 227.72 104.335L224.187 102.46ZM218.686 108.029C216.292 109.316 213.377 110 209.871 110V114C213.899 114 217.492 113.211 220.58 111.552L218.686 108.029ZM205.126 106.357H209.527V102.357H205.126V106.357ZM209.527 106.357C211.82 106.357 213.895 105.972 215.673 105.105L213.921 101.509C212.826 102.043 211.388 102.357 209.527 102.357V106.357ZM215.68 105.102C217.577 104.169 218.98 102.658 219.891 100.687L216.26 99.0087C215.698 100.225 214.915 101.02 213.915 101.512L215.68 105.102ZM219.888 100.693C220.806 98.7227 221.198 96.2623 221.198 93.4364H217.198C217.198 95.9472 216.841 97.7609 216.263 99.0026L219.888 100.693ZM221.198 93.4364C221.198 90.613 220.807 88.1583 219.883 86.2059L216.267 87.917C216.841 89.1279 217.198 90.9232 217.198 93.4364H221.198ZM219.885 86.2112C218.959 84.239 217.539 82.7342 215.625 81.8169L213.896 85.4239C214.905 85.9072 215.694 86.6964 216.265 87.9117L219.885 86.2112ZM215.643 81.8256C213.847 80.9425 211.738 80.5518 209.4 80.5518V84.5518C211.312 84.5518 212.777 84.8735 213.879 85.4152L215.643 81.8256ZM209.4 80.5518H205.126V84.5518H209.4V80.5518ZM203.126 82.5518V104.357H207.126V82.5518H203.126ZM235.415 112V74.9091H231.415V112H235.415ZM233.415 76.9091H259.277V72.9091H233.415V76.9091ZM257.277 74.9091V82.1896H261.277V74.9091H257.277ZM259.277 80.1896H242.38V84.1896H259.277V80.1896ZM240.38 82.1896V89.7962H244.38V82.1896H240.38ZM242.38 91.7962H257.955V87.7962H242.38V91.7962ZM255.955 89.7962V97.0948H259.955V89.7962H255.955ZM257.955 95.0948H242.38V99.0948H257.955V95.0948ZM240.38 97.0948V104.719H244.38V97.0948H240.38ZM242.38 106.719H259.277V102.719H242.38V106.719ZM257.277 104.719V112H261.277V104.719H257.277ZM259.277 110H233.415V114H259.277V110ZM286.932 85.848C286.767 84.0315 285.994 82.4639 284.551 81.3492L282.106 84.5152C282.57 84.8735 282.872 85.3705 282.949 86.2102L286.932 85.848ZM284.573 81.3665C283.148 80.2337 281.293 79.8093 279.29 79.8093V83.8093C280.788 83.8093 281.626 84.1335 282.084 84.4978L284.573 81.3665ZM279.29 79.8093C277.973 79.8093 276.741 79.9785 275.664 80.3992L277.12 84.125C277.588 83.942 278.288 83.8093 279.29 83.8093V79.8093ZM275.664 80.3992C274.629 80.8038 273.699 81.423 273.036 82.3354L276.271 84.6881C276.38 84.5379 276.61 84.3241 277.12 84.125L275.664 80.3992ZM273.049 82.3177C272.401 83.1879 272.075 84.1949 272.056 85.269L276.055 85.3404C276.06 85.0622 276.133 84.8739 276.258 84.7057L273.049 82.3177ZM272.058 85.2178C272.019 86.0954 272.191 86.9688 272.645 87.7639L276.118 85.7794C276.09 85.7293 276.044 85.6247 276.054 85.3916L272.058 85.2178ZM272.667 87.8007C273.088 88.5034 273.663 89.0771 274.33 89.5389L276.607 86.2501C276.332 86.0599 276.182 85.8851 276.097 85.7427L272.667 87.8007ZM274.378 89.5714C275.019 89.988 275.746 90.3295 276.534 90.6111L277.88 86.8441C277.316 86.6428 276.883 86.4289 276.558 86.2176L274.378 89.5714ZM276.534 90.6111C277.308 90.8874 278.155 91.1211 279.07 91.3171L279.908 87.4059C279.132 87.2396 278.458 87.0508 277.88 86.8441L276.534 90.6111ZM279.046 91.3118L282.233 92.0362L283.12 88.1357L279.932 87.4112L279.046 91.3118ZM282.252 92.0404C283.968 92.413 285.436 92.9003 286.673 93.4868L288.387 89.8725C286.823 89.131 285.055 88.5558 283.101 88.1315L282.252 92.0404ZM286.679 93.4897C287.929 94.0771 288.922 94.7516 289.693 95.4935L292.466 92.6109C291.33 91.5176 289.957 90.6104 288.381 89.8697L286.679 93.4897ZM289.702 95.5022C290.472 96.2329 291.039 97.058 291.423 97.9868L295.119 96.4563C294.514 94.9946 293.62 93.7067 292.457 92.6022L289.702 95.5022ZM291.423 97.9868C291.807 98.9121 292.022 99.9928 292.032 101.258L296.032 101.226C296.018 99.5214 295.726 97.9217 295.119 96.4563L291.423 97.9868ZM292.032 101.232C292.022 103.229 291.523 104.83 290.617 106.129L293.897 108.418C295.333 106.36 296.018 103.94 296.032 101.252L292.032 101.232ZM290.617 106.129C289.7 107.442 288.349 108.506 286.451 109.278L287.957 112.983C290.454 111.968 292.472 110.461 293.897 108.418L290.617 106.129ZM286.447 109.279C284.564 110.049 282.197 110.471 279.29 110.471V114.471C282.564 114.471 285.474 113.999 287.961 112.982L286.447 109.279ZM279.29 110.471C276.382 110.471 273.941 110.035 271.924 109.221L270.428 112.931C273.023 113.977 275.992 114.471 279.29 114.471V110.471ZM271.924 109.221C269.954 108.427 268.492 107.256 267.455 105.719L264.14 107.958C265.662 110.213 267.786 111.866 270.428 112.931L271.924 109.221ZM267.455 105.719C266.445 104.224 265.856 102.235 265.823 99.6234L261.823 99.6734C261.863 102.858 262.59 105.662 264.14 107.958L267.455 105.719ZM263.823 101.648H272.408V97.6484H263.823V101.648ZM270.411 99.7694C270.501 101.255 270.909 102.633 271.738 103.797L274.997 101.477C274.691 101.047 274.459 100.433 274.404 99.5274L270.411 99.7694ZM271.738 103.797C272.544 104.928 273.636 105.755 274.938 106.295L276.47 102.6C275.792 102.319 275.326 101.939 274.997 101.477L271.738 103.797ZM274.946 106.299C276.234 106.826 277.66 107.064 279.181 107.064V103.064C278.071 103.064 277.178 102.89 276.462 102.597L274.946 106.299ZM279.181 107.064C280.557 107.064 281.842 106.879 282.98 106.441L281.54 102.709C280.987 102.922 280.219 103.064 279.181 103.064V107.064ZM282.971 106.444C284.085 106.02 285.071 105.381 285.802 104.458L282.666 101.975C282.479 102.211 282.15 102.477 281.549 102.705L282.971 106.444ZM285.802 104.458C286.537 103.529 286.921 102.438 286.94 101.256L282.941 101.192C282.935 101.507 282.848 101.745 282.666 101.975L285.802 104.458ZM286.94 101.19C286.921 100.063 286.557 99.0085 285.809 98.1326L282.767 100.73C282.865 100.844 282.936 100.984 282.941 101.259L286.94 101.19ZM285.825 98.1507C285.122 97.3071 284.151 96.712 283.093 96.2772L281.572 99.977C282.277 100.267 282.61 100.541 282.752 100.711L285.825 98.1507ZM283.123 96.2902C282.107 95.8526 280.872 95.4762 279.452 95.1466L278.548 99.043C279.832 99.3412 280.819 99.6531 281.541 99.9641L283.123 96.2902ZM279.455 95.1473L275.579 94.2417L274.669 98.1368L278.545 99.0424L279.455 95.1473ZM275.571 94.2399C272.582 93.5544 270.391 92.4835 268.865 91.1266L266.207 94.1163C268.375 96.0435 271.243 97.3512 274.677 98.1387L275.571 94.2399ZM268.87 91.1315C267.508 89.9122 266.773 88.2559 266.783 85.929L262.783 85.9119C262.769 89.2114 263.869 92.0224 266.202 94.1114L268.87 91.1315ZM266.783 85.9099C266.773 84.0041 267.277 82.4143 268.253 81.0585L265.007 78.7206C263.497 80.8179 262.769 83.2488 262.783 85.931L266.783 85.9099ZM268.253 81.0585C269.1 79.8825 270.373 79.4 272.805 78.331L271.195 74.6691C269.233 75.5318 266.648 76.4435 265.007 78.7206L268.253 81.0585ZM272.805 78.331C273.295 78.1154 273.807 78.1154 274.842 78.3416C275.78 78.5469 277.31 79 279 79V75C277.877 75 277.005 74.7202 275.696 74.434C274.483 74.1687 272.902 73.9187 271.195 74.6691L272.805 78.331ZM278.45 78.9231C280.345 79.4644 282.087 79.7296 283.627 79.9221C285.224 80.1217 286.453 80.2303 287.608 80.4612L288.392 76.5389C287.047 76.2698 285.526 76.1284 284.123 75.953C282.663 75.7704 281.155 75.5356 279.549 75.077L278.45 78.9231ZM287.172 80.3208C287.784 80.5986 288.262 80.7671 288.687 80.8719C289.077 80.9681 289.466 81.0109 289.522 81.0195C289.57 81.0269 289.594 81.0283 289.697 81.0741C289.846 81.1401 290.125 81.2865 290.645 81.6231L292.818 78.2647C291.602 77.4777 290.922 77.1879 290.13 77.066C289.798 77.0149 289.805 77.0277 289.645 76.9883C289.519 76.9573 289.279 76.8844 288.828 76.6793L287.172 80.3208ZM290.07 81.0559C291.004 82.453 291.504 84.0943 291.525 86.0501L295.525 86.0082C295.497 83.3517 294.802 80.9362 293.394 78.8318L290.07 81.0559ZM293.525 84.0291H284.94V88.0291H293.525V84.0291ZM305.524 82.9322V112H309.524V82.9322H305.524ZM307.524 110H298.56V114H307.524V110ZM300.56 112V81H296.56V112H300.56ZM298.138 82.9551L307.103 84.8873L307.946 80.9771L298.981 79.0449L298.138 82.9551ZM381.816 101.242V112H385.816V101.242H381.816ZM383.816 110H376.21V114H383.816V110ZM377.661 110.624L362.665 94.813L359.763 97.5656L374.759 113.376L377.661 110.624ZM359.214 96.1893V112H363.214V96.1893H359.214ZM361.214 110H352.249V114H361.214V110ZM354.249 112V94.0522H350.249V112H354.249ZM351.785 95.9977L360.75 98.1348L361.678 94.2438L352.713 92.1067L351.785 95.9977ZM360.756 98.1362L374.542 101.378L375.458 97.4842L361.672 94.2424L360.756 98.1362ZM374.598 101.39L383.414 103.201L384.219 99.2831L375.403 97.472L374.598 101.39ZM487.718 95.4862L461.494 106.498L463.042 110.186L489.267 99.1743L487.718 95.4862ZM464.268 108.342V100.119H460.268V108.342H464.268ZM462.969 101.992L480.283 95.5086L478.881 91.7627L461.567 98.2463L462.969 101.992ZM477.874 92.5958L477.62 93.0123L481.037 95.0921L481.29 94.6755L477.874 92.5958ZM481.328 94.0522V93.0923H477.328V94.0522H481.328ZM477.641 94.166L477.895 94.5645L481.269 92.4171L481.016 92.0186L477.641 94.166ZM480.282 91.6171L462.968 85.1516L461.568 88.8988L478.882 95.3644L480.282 91.6171ZM464.268 87.0252V78.7848H460.268V87.0252H464.268ZM461.494 80.6288L487.718 91.6402L489.267 87.9521L463.042 76.9408L461.494 80.6288ZM486.492 89.7962V97.3303H490.492V89.7962H486.492Z" fill="#5C0000" mask="url(#path-1-outside-1_30_29)"/>
</svg>
