<svg width="18" height="15" viewBox="0 0 18 15" fill="none" xmlns="http://www.w3.org/2000/svg">
<path d="M16.5385 4.25577C16.6842 3.90481 16.6901 1.91058 15.9173 0C15.9173 0 14.1457 0.191346 11.4652 2C10.9027 1.84615 9.95087 1.77115 9.00098 1.77115C8.04913 1.77115 7.09826 1.84615 6.53576 2C3.85435 0.191346 2.08272 0 2.08272 0C1.31087 1.91058 1.3187 3.90481 1.4625 4.25577C0.554674 5.225 0 6.38942 0 7.97788C0 14.8875 5.83337 14.9981 7.30467 14.9981L9.00098 15L10.6953 14.9981C12.1686 14.9981 18 14.8875 18 7.97788C18 6.38942 17.4463 5.225 16.5385 4.25577ZM9.02739 14.149L8.35714 10.625C4.66812 10.625 2.40946 13.7173 2.40946 10.1923C2.40946 9.34712 1.85045 13.775 2.57143 13.125C3.77175 12.0413 6.72163 14.149 9.02739 14.149H12.4152C14.7209 14.149 14.2273 12.0413 15.4286 13.125C16.1476 13.775 15.5905 9.34712 15.5905 10.1923C15.5905 13.7173 12.7174 14.149 9.02739 14.149Z" fill="white"/>
</svg>
